<svg xmlns="http://www.w3.org/2000/svg" width="68.684" height="69" viewBox="0 0 68.684 69">
  <path id="_3d-rotation" data-name="3d-rotation" d="M21.551,61.755A30.149,30.149,0,0,1,4.387,37.375H.075A34.483,34.483,0,0,0,34.431,69l1.9-.086L25.375,57.96ZM24.11,43.01a4.8,4.8,0,0,1-1.495-.23,3.076,3.076,0,0,1-1.15-.69,2.85,2.85,0,0,1-.747-1.064,3.431,3.431,0,0,1-.259-1.351H16.721a5.883,5.883,0,0,0,.6,2.731,6.356,6.356,0,0,0,1.61,1.984,7.262,7.262,0,0,0,2.357,1.179,8.672,8.672,0,0,0,2.76.431,9.7,9.7,0,0,0,2.961-.431A7.01,7.01,0,0,0,29.4,44.3a5.687,5.687,0,0,0,1.581-2.07,6.715,6.715,0,0,0,.575-2.789,6.029,6.029,0,0,0-.2-1.61,4.8,4.8,0,0,0-.661-1.466,5.167,5.167,0,0,0-1.15-1.236,5.912,5.912,0,0,0-1.754-.891,6.032,6.032,0,0,0,2.559-2.156,5.067,5.067,0,0,0,.632-1.323,4.584,4.584,0,0,0,.2-1.38,6.949,6.949,0,0,0-.517-2.76A5.118,5.118,0,0,0,29.2,24.639,5.915,5.915,0,0,0,26.985,23.4a10.478,10.478,0,0,0-2.932-.4,8.493,8.493,0,0,0-2.875.46,7.315,7.315,0,0,0-2.271,1.294A6.464,6.464,0,0,0,17.44,26.68a5.729,5.729,0,0,0-.518,2.444H20.66a3.057,3.057,0,0,1,.259-1.294,2.7,2.7,0,0,1,.719-.978,3.408,3.408,0,0,1,1.092-.632,4.208,4.208,0,0,1,1.38-.23,3.3,3.3,0,0,1,2.559.891,3.473,3.473,0,0,1,.834,2.472,4.385,4.385,0,0,1-.23,1.409,2.5,2.5,0,0,1-.719,1.064,3.646,3.646,0,0,1-1.179.69,4.838,4.838,0,0,1-1.667.259H21.494v2.961h2.214a6.458,6.458,0,0,1,1.725.2,3.439,3.439,0,0,1,1.294.661,3.387,3.387,0,0,1,.834,1.15,4.075,4.075,0,0,1,.287,1.639,3.447,3.447,0,0,1-1.006,2.674,3.684,3.684,0,0,1-2.731.949ZM48.691,25.99a9.575,9.575,0,0,0-3.277-2.214,10.815,10.815,0,0,0-4.2-.776H34.431V46h6.612a11.669,11.669,0,0,0,4.341-.776,9.474,9.474,0,0,0,3.335-2.185,9.7,9.7,0,0,0,2.127-3.421A13.152,13.152,0,0,0,51.6,35.1v-1.15a13.152,13.152,0,0,0-.748-4.514,10.046,10.046,0,0,0-2.156-3.45ZM47.57,35.075a12.559,12.559,0,0,1-.4,3.249,6.989,6.989,0,0,1-1.236,2.444,5.375,5.375,0,0,1-2.041,1.524,7.388,7.388,0,0,1-2.846.518H38.427V26.22h2.789A5.7,5.7,0,0,1,45.931,28.2a8.756,8.756,0,0,1,1.639,5.721v1.15ZM34.431,0l-1.9.086L43.488,11.04l3.824-3.824A30.1,30.1,0,0,1,64.446,31.6h4.313A34.433,34.433,0,0,0,34.431,0Z" transform="translate(-0.075)" fill="#5c6052"/>
</svg>
